# xmcd
#
# Track frame offsets:
#	150
#	1127
#	2184
#	2740
#	3958
#	4878
#	5606
#	6272
#	7529
#	9382
#	10165
#	10936
#	11355
#	12957
#	14628
#	15981
#	17334
#	18254
#	18982
#	19538
#	20515
#	21572
#	22790
#	24461
#	26063
#	26482
#	27253
#	28036
#	29889
#
# Disc length: 423 seconds
#
# Revision: 0
# Processed by: cddbd v1.5.1PL2 Copyright (c) Steve Scherf et al.
# Submitted via: dBpowerAMP V4.0
#
DISCID=1c01a51d
DTITLE=Serguio huescar - cuñas 106-7
DYEAR=2006
DGENRE=cuñas
TTITLE0=1
TTITLE1=2
TTITLE2=2
TTITLE3=2
TTITLE4=2
TTITLE5=2
TTITLE6=2
TTITLE7=2
TTITLE8=2
TTITLE9=2
TTITLE10=2
TTITLE11=2
TTITLE12=2
TTITLE13=2
TTITLE14=2
TTITLE15=2
TTITLE16=2
TTITLE17=2
TTITLE18=2
TTITLE19=2
TTITLE20=2
TTITLE21=2
TTITLE22=2
TTITLE23=2
TTITLE24=2
TTITLE25=2
TTITLE26=2
TTITLE27=2
TTITLE28=2
EXTD=cuñas
EXTT0=
EXTT1=
EXTT2=
EXTT3=
EXTT4=
EXTT5=
EXTT6=
EXTT7=
EXTT8=
EXTT9=
EXTT10=
EXTT11=
EXTT12=
EXTT13=
EXTT14=
EXTT15=
EXTT16=
EXTT17=
EXTT18=
EXTT19=
EXTT20=
EXTT21=
EXTT22=
EXTT23=
EXTT24=
EXTT25=
EXTT26=
EXTT27=
EXTT28=
PLAYORDER=
